<svg xmlns="http://www.w3.org/2000/svg" width="101" height="108" fill="none" viewBox="0 0 101 108"><g filter="url(#filter0_d_58_852)"><path fill="#fff" d="M50.5343 93.7589L25.6791 85.811L9 64.4508V37.7919L24.371 14.9415L50.5343 6L75.8801 14.9415L91.251 37.7919V64.4508L75.8801 85.811L50.5343 93.7589Z"/><path stroke="#fff" stroke-width="10" d="M50.5343 6V93.7589M50.5343 6L25.6791 85.811M50.5343 6L9 64.4508M50.5343 6L9 37.7919M50.5343 6L24.371 14.9415L9 37.7919M50.5343 6L75.8801 14.9415M50.5343 93.7589L25.6791 85.811M50.5343 93.7589L75.8801 85.811L91.251 64.4508M50.5343 93.7589L91.251 64.4508M50.5343 93.7589L91.251 37.7919M50.5343 93.7589L75.8801 14.9415M25.6791 85.811L9 64.4508M9 64.4508V37.7919M91.251 64.4508V37.7919M91.251 37.7919L75.8801 14.9415"/></g><path fill="#fff" d="M50.5343 92.6573L25.6791 84.8424L9 63.8397V37.627L24.371 15.159L50.5343 6.36719L75.8801 15.159L91.251 37.627V63.8397L75.8801 84.8424L50.5343 92.6573Z"/><path stroke="#fff" stroke-width="2" d="M50.5343 6.36719V92.6573M50.5343 6.36719L25.6791 84.8424M50.5343 6.36719L9 63.8397M50.5343 6.36719L9 37.627M50.5343 6.36719L24.371 15.159L9 37.627M50.5343 6.36719L75.8801 15.159M50.5343 92.6573L25.6791 84.8424M50.5343 92.6573L75.8801 84.8424L91.251 63.8397M50.5343 92.6573L91.251 63.8397M50.5343 92.6573L91.251 37.627M50.5343 92.6573L75.8801 15.159M25.6791 84.8424L9 63.8397M9 63.8397V37.627M91.251 63.8397V37.627M91.251 37.627L75.8801 15.159"/><path fill="url(#paint0_linear_58_852)" d="M26.0747 84.9463L50.1258 8.20312V92.2901L26.0747 84.9463Z"/><path fill="url(#paint1_linear_58_852)" d="M25.5236 84.3955L9.36719 63.8312L49.5747 8.20312L25.5236 84.3955Z"/><path fill="url(#paint2_linear_58_852)" d="M9 63.4655V38.1293L48.8404 8.01953L9 63.4655Z"/><path fill="url(#paint3_linear_58_852)" d="M24.5353 15.3331L10.1016 36.4769L49.0239 7.10156L24.5353 15.3331Z"/><path fill="url(#paint4_linear_58_852)" d="M75.4209 15.2612L50.615 91.474L50.8598 6.91785L75.4209 15.2612Z"/><path fill="url(#paint5_linear_58_852)" d="M75.9104 15.5878L90.7614 37.6193L51.1046 91.4742L75.9104 15.5878Z"/><path fill="url(#paint6_linear_58_852)" d="M90.9245 38.4353L90.9245 63.7308L51.9205 91.3109L90.9245 38.4353Z"/><path fill="url(#paint7_linear_58_852)" d="M75.584 84.62L89.6189 65.3628L52.4101 91.8007L75.584 84.62Z"/><defs><filter id="filter0_d_58_852" width="100.251" height="106.297" x="0" y=".707" color-interpolation-filters="sRGB" filterUnits="userSpaceOnUse"><feFlood flood-opacity="0" result="BackgroundImageFix"/><feColorMatrix in="SourceAlpha" result="hardAlpha" type="matrix" values="0 0 0 0 0 0 0 0 0 0 0 0 0 0 0 0 0 0 127 0"/><feOffset dy="4"/><feGaussianBlur stdDeviation="2"/><feComposite in2="hardAlpha" operator="out"/><feColorMatrix type="matrix" values="0 0 0 0 0 0 0 0 0 0 0 0 0 0 0 0 0 0 0.25 0"/><feBlend in2="BackgroundImageFix" mode="normal" result="effect1_dropShadow_58_852"/><feBlend in="SourceGraphic" in2="effect1_dropShadow_58_852" mode="normal" result="shape"/></filter><linearGradient id="paint0_linear_58_852" x1="49.963" x2="37.871" y1="9.303" y2="88.206" gradientUnits="userSpaceOnUse"><stop offset=".219" stop-color="#FFB963"/><stop offset="1" stop-color="#E48BB7"/></linearGradient><linearGradient id="paint1_linear_58_852" x1="49.758" x2="15.88" y1="7.469" y2="73.058" gradientUnits="userSpaceOnUse"><stop offset=".318" stop-color="#E38AB6"/><stop offset="1" stop-color="#CB79CD"/></linearGradient><linearGradient id="paint2_linear_58_852" x1="49.227" x2="9.102" y1="7.632" y2="51.612" gradientUnits="userSpaceOnUse"><stop offset=".396" stop-color="#CA78CC"/><stop offset="1" stop-color="#AD65E3"/></linearGradient><linearGradient id="paint3_linear_58_852" x1="49.024" x2="15.704" y1="7.102" y2="27.742" gradientUnits="userSpaceOnUse"><stop offset=".427" stop-color="#AC65E3"/><stop offset="1" stop-color="#FFBA64"/></linearGradient><linearGradient id="paint4_linear_58_852" x1="50.125" x2="62.855" y1="91.474" y2="10.692" gradientUnits="userSpaceOnUse"><stop offset=".313" stop-color="#AC65E3"/><stop offset="1" stop-color="#FFBA64"/></linearGradient><linearGradient id="paint5_linear_58_852" x1="51.105" x2="83.581" y1="91.801" y2="26.685" gradientUnits="userSpaceOnUse"><stop offset=".344" stop-color="#CA78CC"/><stop offset="1" stop-color="#AD66E4"/></linearGradient><linearGradient id="paint6_linear_58_852" x1="51.757" x2="90.924" y1="91.474" y2="50.675" gradientUnits="userSpaceOnUse"><stop offset=".344" stop-color="#E38AB6"/><stop offset="1" stop-color="#CB79CD"/></linearGradient><linearGradient id="paint7_linear_58_852" x1="52.41" x2="83.417" y1="92.127" y2="74.175" gradientUnits="userSpaceOnUse"><stop offset=".344" stop-color="#FFB963"/><stop offset="1" stop-color="#E48BB7"/></linearGradient></defs></svg>