<svg xmlns="http://www.w3.org/2000/svg" width="126" height="71" fill="none" viewBox="0 0 126 71"><circle cx="8.551" cy="62.148" r="8.523" fill="#D9D9D9" transform="rotate(-90.0263 8.55104 62.1477)"/><circle cx="8.539" cy="35.362" r="8.523" fill="#D9D9D9" transform="rotate(-90.0263 8.53883 35.362)"/><circle cx="8.527" cy="8.576" r="8.523" fill="#D9D9D9" transform="rotate(-90.0263 8.52663 8.57614)"/><circle cx="35.337" cy="62.136" r="8.523" fill="#D9D9D9" transform="rotate(-90.0263 35.3367 62.1355)"/><circle cx="35.325" cy="35.35" r="8.523" fill="#D9D9D9" transform="rotate(-90.0263 35.3245 35.3496)"/><circle cx="35.312" cy="8.564" r="8.523" fill="#D9D9D9" transform="rotate(-90.0263 35.3123 8.56394)"/><circle cx="62.122" cy="62.123" r="8.523" fill="#D9D9D9" transform="rotate(-90.0263 62.1223 62.123)"/><circle cx="62.11" cy="35.337" r="8.523" fill="#D9D9D9" transform="rotate(-90.0263 62.1101 35.3374)"/><circle cx="62.098" cy="8.552" r="8.523" fill="#D9D9D9" transform="rotate(-90.0263 62.0979 8.55173)"/><circle cx="88.908" cy="62.111" r="8.523" fill="#D9D9D9" transform="rotate(-90.0263 88.908 62.1108)"/><circle cx="88.896" cy="35.325" r="8.523" fill="#D9D9D9" transform="rotate(-90.0263 88.8958 35.3252)"/><circle cx="88.884" cy="8.539" r="8.523" fill="#D9D9D9" transform="rotate(-90.0263 88.8836 8.53928)"/><circle cx="116.506" cy="62.098" r="8.523" fill="#D9D9D9" transform="rotate(-90.0263 116.506 62.0981)"/><circle cx="116.493" cy="35.313" r="8.523" fill="#D9D9D9" transform="rotate(-90.0263 116.493 35.3125)"/><circle cx="116.481" cy="8.527" r="8.523" fill="#D9D9D9" transform="rotate(-90.0263 116.481 8.52658)"/></svg>